<svg version="1.1" xmlns="http://www.w3.org/2000/svg" viewBox="0 0 1264.0469360351562 828.6666259765625" width="1264.0469360351562" height="828.6666259765625">
  <!-- svg-source:excalidraw -->
  
  <defs>
    <style class="style-fonts">
      @font-face {
        font-family: "Virgil";
        src: url("https://excalidraw.com/Virgil.woff2");
      }
      @font-face {
        font-family: "Cascadia";
        src: url("https://excalidraw.com/Cascadia.woff2");
      }
      @font-face {
        font-family: "Assistant";
        src: url("https://excalidraw.com/Assistant-Regular.woff2");
      }
    </style>
    
  </defs>
  <rect x="0" y="0" width="1264.0469360351562" height="828.6666259765625" fill="#ffffff"></rect><g transform="translate(10 10) rotate(0 169.44192504882812 17.5)"><text x="0" y="0" font-family="Virgil, Segoe UI Emoji" font-size="28px" fill="#1e1e1e" text-anchor="start" style="white-space: pre;" direction="ltr" dominant-baseline="text-before-edge">from-javascript-to-react</text></g><g transform="translate(11.66668701171875 50.6666259765625) rotate(0 486.328125 384)"><text x="0" y="0" font-family="Cascadia, Segoe UI Emoji" font-size="20px" fill="#1e1e1e" text-anchor="start" style="white-space: pre;" direction="ltr" dominant-baseline="text-before-edge">&lt;script src="https://unpkg.com/react@17/umd/react.development.js"&gt;&lt;/script&gt;</text><text x="0" y="24" font-family="Cascadia, Segoe UI Emoji" font-size="20px" fill="#1e1e1e" text-anchor="start" style="white-space: pre;" direction="ltr" dominant-baseline="text-before-edge">&lt;script src="https://unpkg.com/react-dom@17/umd/react-dom.development.js"&gt;&lt;/script&gt;</text><text x="0" y="48" font-family="Cascadia, Segoe UI Emoji" font-size="20px" fill="#1e1e1e" text-anchor="start" style="white-space: pre;" direction="ltr" dominant-baseline="text-before-edge">&lt;script src="https://unpkg.com/@babel/standalone/babel.min.js"&gt;&lt;/script&gt;</text><text x="0" y="72" font-family="Cascadia, Segoe UI Emoji" font-size="20px" fill="#1e1e1e" text-anchor="start" style="white-space: pre;" direction="ltr" dominant-baseline="text-before-edge"></text><text x="0" y="96" font-family="Cascadia, Segoe UI Emoji" font-size="20px" fill="#1e1e1e" text-anchor="start" style="white-space: pre;" direction="ltr" dominant-baseline="text-before-edge">&lt;script type="text/jsx"&gt;</text><text x="0" y="120" font-family="Cascadia, Segoe UI Emoji" font-size="20px" fill="#1e1e1e" text-anchor="start" style="white-space: pre;" direction="ltr" dominant-baseline="text-before-edge">      const app = document.getElementById('app');</text><text x="0" y="144" font-family="Cascadia, Segoe UI Emoji" font-size="20px" fill="#1e1e1e" text-anchor="start" style="white-space: pre;" direction="ltr" dominant-baseline="text-before-edge"></text><text x="0" y="168" font-family="Cascadia, Segoe UI Emoji" font-size="20px" fill="#1e1e1e" text-anchor="start" style="white-space: pre;" direction="ltr" dominant-baseline="text-before-edge">      function Header({ title }) {</text><text x="0" y="192" font-family="Cascadia, Segoe UI Emoji" font-size="20px" fill="#1e1e1e" text-anchor="start" style="white-space: pre;" direction="ltr" dominant-baseline="text-before-edge">        return &lt;h1&gt;{title ? title : 'Default Title'}&lt;/h1&gt;;</text><text x="0" y="216" font-family="Cascadia, Segoe UI Emoji" font-size="20px" fill="#1e1e1e" text-anchor="start" style="white-space: pre;" direction="ltr" dominant-baseline="text-before-edge">      }</text><text x="0" y="240" font-family="Cascadia, Segoe UI Emoji" font-size="20px" fill="#1e1e1e" text-anchor="start" style="white-space: pre;" direction="ltr" dominant-baseline="text-before-edge"></text><text x="0" y="264" font-family="Cascadia, Segoe UI Emoji" font-size="20px" fill="#1e1e1e" text-anchor="start" style="white-space: pre;" direction="ltr" dominant-baseline="text-before-edge">      function HomePage() {</text><text x="0" y="288" font-family="Cascadia, Segoe UI Emoji" font-size="20px" fill="#1e1e1e" text-anchor="start" style="white-space: pre;" direction="ltr" dominant-baseline="text-before-edge">        const names = ['Ada Lovelace', 'Grace Hopper', 'Margaret Hamilton'];</text><text x="0" y="312" font-family="Cascadia, Segoe UI Emoji" font-size="20px" fill="#1e1e1e" text-anchor="start" style="white-space: pre;" direction="ltr" dominant-baseline="text-before-edge">        const [likes, setLikes] = React.useState(0);</text><text x="0" y="336" font-family="Cascadia, Segoe UI Emoji" font-size="20px" fill="#1e1e1e" text-anchor="start" style="white-space: pre;" direction="ltr" dominant-baseline="text-before-edge"></text><text x="0" y="360" font-family="Cascadia, Segoe UI Emoji" font-size="20px" fill="#1e1e1e" text-anchor="start" style="white-space: pre;" direction="ltr" dominant-baseline="text-before-edge">        function handleClick() {</text><text x="0" y="384" font-family="Cascadia, Segoe UI Emoji" font-size="20px" fill="#1e1e1e" text-anchor="start" style="white-space: pre;" direction="ltr" dominant-baseline="text-before-edge">          setLikes(likes + 1);</text><text x="0" y="408" font-family="Cascadia, Segoe UI Emoji" font-size="20px" fill="#1e1e1e" text-anchor="start" style="white-space: pre;" direction="ltr" dominant-baseline="text-before-edge">        }</text><text x="0" y="432" font-family="Cascadia, Segoe UI Emoji" font-size="20px" fill="#1e1e1e" text-anchor="start" style="white-space: pre;" direction="ltr" dominant-baseline="text-before-edge"></text><text x="0" y="456" font-family="Cascadia, Segoe UI Emoji" font-size="20px" fill="#1e1e1e" text-anchor="start" style="white-space: pre;" direction="ltr" dominant-baseline="text-before-edge">        return (</text><text x="0" y="480" font-family="Cascadia, Segoe UI Emoji" font-size="20px" fill="#1e1e1e" text-anchor="start" style="white-space: pre;" direction="ltr" dominant-baseline="text-before-edge">          &lt;div&gt;</text><text x="0" y="504" font-family="Cascadia, Segoe UI Emoji" font-size="20px" fill="#1e1e1e" text-anchor="start" style="white-space: pre;" direction="ltr" dominant-baseline="text-before-edge">            &lt;Header title="Develop. Preview. Ship. 🚀" /&gt;</text><text x="0" y="528" font-family="Cascadia, Segoe UI Emoji" font-size="20px" fill="#1e1e1e" text-anchor="start" style="white-space: pre;" direction="ltr" dominant-baseline="text-before-edge">            &lt;ul&gt;</text><text x="0" y="552" font-family="Cascadia, Segoe UI Emoji" font-size="20px" fill="#1e1e1e" text-anchor="start" style="white-space: pre;" direction="ltr" dominant-baseline="text-before-edge">              {names.map((name) =&gt; (&lt;li key={name}&gt;{name}&lt;/li&gt;))}</text><text x="0" y="576" font-family="Cascadia, Segoe UI Emoji" font-size="20px" fill="#1e1e1e" text-anchor="start" style="white-space: pre;" direction="ltr" dominant-baseline="text-before-edge">            &lt;/ul&gt;</text><text x="0" y="600" font-family="Cascadia, Segoe UI Emoji" font-size="20px" fill="#1e1e1e" text-anchor="start" style="white-space: pre;" direction="ltr" dominant-baseline="text-before-edge">            &lt;button onClick={handleClick}&gt;Like({likes})&lt;/button&gt;</text><text x="0" y="624" font-family="Cascadia, Segoe UI Emoji" font-size="20px" fill="#1e1e1e" text-anchor="start" style="white-space: pre;" direction="ltr" dominant-baseline="text-before-edge">          &lt;/div&gt;</text><text x="0" y="648" font-family="Cascadia, Segoe UI Emoji" font-size="20px" fill="#1e1e1e" text-anchor="start" style="white-space: pre;" direction="ltr" dominant-baseline="text-before-edge">        );</text><text x="0" y="672" font-family="Cascadia, Segoe UI Emoji" font-size="20px" fill="#1e1e1e" text-anchor="start" style="white-space: pre;" direction="ltr" dominant-baseline="text-before-edge">      }</text><text x="0" y="696" font-family="Cascadia, Segoe UI Emoji" font-size="20px" fill="#1e1e1e" text-anchor="start" style="white-space: pre;" direction="ltr" dominant-baseline="text-before-edge"></text><text x="0" y="720" font-family="Cascadia, Segoe UI Emoji" font-size="20px" fill="#1e1e1e" text-anchor="start" style="white-space: pre;" direction="ltr" dominant-baseline="text-before-edge">      ReactDOM.render(&lt;HomePage /&gt;, app);</text><text x="0" y="744" font-family="Cascadia, Segoe UI Emoji" font-size="20px" fill="#1e1e1e" text-anchor="start" style="white-space: pre;" direction="ltr" dominant-baseline="text-before-edge">&lt;/script&gt;</text></g><g stroke-linecap="round"><g transform="translate(993.643310546875 49.33331298828125) rotate(0 0 26.000015258789062)"><path d="M0 0 C0 8.67, 0 43.33, 0 52 M0 0 C0 8.67, 0 43.33, 0 52" stroke="#1e1e1e" stroke-width="4" fill="none"></path></g></g><mask></mask><g transform="translate(1007.9531860351562 63.79996948242187) rotate(0 123.046875 12)"><text x="0" y="0" font-family="Cascadia, Segoe UI Emoji" font-size="20px" fill="#1e1e1e" text-anchor="start" style="white-space: pre;" direction="ltr" dominant-baseline="text-before-edge">import 2 react script</text></g><g stroke-linecap="round"><g transform="translate(993.643310546875 106.33331298828125) rotate(0 0 12.166671752929688)"><path d="M0 0 C0 4.06, 0 20.28, 0 24.33 M0 0 C0 4.06, 0 20.28, 0 24.33" stroke="#1e1e1e" stroke-width="4" fill="none"></path></g></g><mask></mask><g transform="translate(1007.9531860351562 105.46662597656251) rotate(0 111.328125 12)"><text x="0" y="0" font-family="Cascadia, Segoe UI Emoji" font-size="20px" fill="#1e1e1e" text-anchor="start" style="white-space: pre;" direction="ltr" dominant-baseline="text-before-edge">JavaScript compiler</text></g><g stroke-linecap="round" transform="translate(77.3333740234375 216.66668701171875) rotate(0 308.6666564941406 39.66667175292969)"><path d="M19.83 0 C139.41 0, 258.99 0, 597.5 0 M19.83 0 C228.5 0, 437.18 0, 597.5 0 M597.5 0 C610.72 0, 617.33 6.61, 617.33 19.83 M597.5 0 C610.72 0, 617.33 6.61, 617.33 19.83 M617.33 19.83 C617.33 32.52, 617.33 45.2, 617.33 59.5 M617.33 19.83 C617.33 30.03, 617.33 40.23, 617.33 59.5 M617.33 59.5 C617.33 72.72, 610.72 79.33, 597.5 79.33 M617.33 59.5 C617.33 72.72, 610.72 79.33, 597.5 79.33 M597.5 79.33 C380.37 79.33, 163.24 79.33, 19.83 79.33 M597.5 79.33 C400.89 79.33, 204.27 79.33, 19.83 79.33 M19.83 79.33 C6.61 79.33, 0 72.72, 0 59.5 M19.83 79.33 C6.61 79.33, 0 72.72, 0 59.5 M0 59.5 C0 46.93, 0 34.37, 0 19.83 M0 59.5 C0 46.84, 0 34.18, 0 19.83 M0 19.83 C0 6.61, 6.61 0, 19.83 0 M0 19.83 C0 6.61, 6.61 0, 19.83 0" stroke="#1971c2" stroke-width="2" fill="none"></path></g><g stroke-linecap="round"><g transform="translate(703.3334350585938 255.33334350585938) rotate(0 42.6666259765625 0)"><path d="M0 0 C14.22 0, 71.11 0, 85.33 0 M0 0 C14.22 0, 71.11 0, 85.33 0" stroke="#1971c2" stroke-width="2" fill="none"></path></g><g transform="translate(703.3334350585938 255.33334350585938) rotate(0 42.6666259765625 0)"><path d="M61.84 8.55 C68.66 6.07, 75.48 3.59, 85.33 0 M61.84 8.55 C67.01 6.67, 72.18 4.79, 85.33 0" stroke="#1971c2" stroke-width="2" fill="none"></path></g><g transform="translate(703.3334350585938 255.33334350585938) rotate(0 42.6666259765625 0)"><path d="M61.84 -8.55 C68.66 -6.07, 75.48 -3.59, 85.33 0 M61.84 -8.55 C67.01 -6.67, 72.18 -4.79, 85.33 0" stroke="#1971c2" stroke-width="2" fill="none"></path></g></g><mask></mask><g transform="translate(796.0000610351562 242.66671752929688) rotate(0 76.171875 12)"><text x="0" y="0" font-family="Cascadia, Segoe UI Emoji" font-size="20px" fill="#1971c2" text-anchor="start" style="white-space: pre;" direction="ltr" dominant-baseline="text-before-edge">React element</text></g><g stroke-linecap="round" transform="translate(74.99984741210938 768.6667327880859) rotate(0 210.66665649414062 15.999984741210938)"><path d="M8 0 C163.04 0, 318.08 0, 413.33 0 M8 0 C167.97 0, 327.95 0, 413.33 0 M413.33 0 C418.67 0, 421.33 2.67, 421.33 8 M413.33 0 C418.67 0, 421.33 2.67, 421.33 8 M421.33 8 C421.33 13.68, 421.33 19.36, 421.33 24 M421.33 8 C421.33 12.98, 421.33 17.96, 421.33 24 M421.33 24 C421.33 29.33, 418.67 32, 413.33 32 M421.33 24 C421.33 29.33, 418.67 32, 413.33 32 M413.33 32 C277.34 32, 141.34 32, 8 32 M413.33 32 C317.34 32, 221.34 32, 8 32 M8 32 C2.67 32, 0 29.33, 0 24 M8 32 C2.67 32, 0 29.33, 0 24 M0 24 C0 18.7, 0 13.41, 0 8 M0 24 C0 19.09, 0 14.19, 0 8 M0 8 C0 2.67, 2.67 0, 8 0 M0 8 C0 2.67, 2.67 0, 8 0" stroke="#1971c2" stroke-width="2" fill="none"></path></g><g stroke-linecap="round"><g transform="translate(501.8280029296875 785.0137224354871) rotate(0 42.6666259765625 -0.06845282453673462)"><path d="M0 0 C14.22 -0.02, 71.11 -0.11, 85.33 -0.14 M0 0 C14.22 -0.02, 71.11 -0.11, 85.33 -0.14" stroke="#1971c2" stroke-width="2" fill="none"></path></g><g transform="translate(501.8280029296875 785.0137224354871) rotate(0 42.6666259765625 -0.06845282453673462)"><path d="M61.85 8.45 C67.15 6.51, 72.44 4.58, 85.33 -0.14 M61.85 8.45 C68.57 6, 75.28 3.54, 85.33 -0.14" stroke="#1971c2" stroke-width="2" fill="none"></path></g><g transform="translate(501.8280029296875 785.0137224354871) rotate(0 42.6666259765625 -0.06845282453673462)"><path d="M61.83 -8.65 C67.13 -6.73, 72.43 -4.81, 85.33 -0.14 M61.83 -8.65 C68.55 -6.22, 75.27 -3.78, 85.33 -0.14" stroke="#1971c2" stroke-width="2" fill="none"></path></g></g><mask></mask><g transform="translate(594.49462890625 771.9999694824219) rotate(0 117.1875 12)"><text x="0" y="0" font-family="Cascadia, Segoe UI Emoji" font-size="20px" fill="#1971c2" text-anchor="start" style="white-space: pre;" direction="ltr" dominant-baseline="text-before-edge">Render react element</text></g><g stroke-linecap="round" transform="translate(270.66656494140625 218.00003051757812) rotate(0 52.333343505859375 12.666671752929688)"><path d="M6.33 0 C32.62 0, 58.91 0, 98.33 0 M6.33 0 C25.26 0, 44.19 0, 98.33 0 M98.33 0 C102.56 0, 104.67 2.11, 104.67 6.33 M98.33 0 C102.56 0, 104.67 2.11, 104.67 6.33 M104.67 6.33 C104.67 9.51, 104.67 12.69, 104.67 19 M104.67 6.33 C104.67 10.49, 104.67 14.64, 104.67 19 M104.67 19 C104.67 23.22, 102.56 25.33, 98.33 25.33 M104.67 19 C104.67 23.22, 102.56 25.33, 98.33 25.33 M98.33 25.33 C76.88 25.33, 55.43 25.33, 6.33 25.33 M98.33 25.33 C75.87 25.33, 53.4 25.33, 6.33 25.33 M6.33 25.33 C2.11 25.33, 0 23.22, 0 19 M6.33 25.33 C2.11 25.33, 0 23.22, 0 19 M0 19 C0 14.67, 0 10.33, 0 6.33 M0 19 C0 15.07, 0 11.14, 0 6.33 M0 6.33 C0 2.11, 2.11 0, 6.33 0 M0 6.33 C0 2.11, 2.11 0, 6.33 0" stroke="#2f9e44" stroke-width="2" fill="none"></path></g><g stroke-linecap="round"><g transform="translate(323.9998779296875 213.3333740234375) rotate(0 223.33334350585938 -7.076921976076832)"><path d="M0 0 C17.08 -2.36, 28.06 -11.79, 102.5 -14.15 C176.95 -16.51, 389.31 -14.15, 446.67 -14.15 M0 0 C17.08 -2.36, 28.06 -11.79, 102.5 -14.15 C176.95 -16.51, 389.31 -14.15, 446.67 -14.15" stroke="#2f9e44" stroke-width="2" fill="none"></path></g><g transform="translate(323.9998779296875 213.3333740234375) rotate(0 223.33334350585938 -7.076921976076832)"><path d="M423.13 -5.73 C428.6 -7.69, 434.07 -9.64, 446.67 -14.15 M423.13 -5.73 C431.37 -8.68, 439.6 -11.62, 446.67 -14.15" stroke="#2f9e44" stroke-width="2" fill="none"></path></g><g transform="translate(323.9998779296875 213.3333740234375) rotate(0 223.33334350585938 -7.076921976076832)"><path d="M423.22 -22.83 C428.67 -20.81, 434.12 -18.79, 446.67 -14.15 M423.22 -22.83 C431.43 -19.79, 439.63 -16.76, 446.67 -14.15" stroke="#2f9e44" stroke-width="2" fill="none"></path></g></g><mask></mask><g transform="translate(776.4946899414062 185.66665649414062) rotate(0 140.625 12)"><text x="0" y="0" font-family="Cascadia, Segoe UI Emoji" font-size="20px" fill="#2f9e44" text-anchor="start" style="white-space: pre;" direction="ltr" dominant-baseline="text-before-edge">React element attributes</text></g><g stroke-linecap="round" transform="translate(403.9998779296875 362.0000305175781) rotate(0 103 13.333343505859375)"><path d="M6.67 0 C64.9 0, 123.13 0, 199.33 0 M6.67 0 C59.03 0, 111.39 0, 199.33 0 M199.33 0 C203.78 0, 206 2.22, 206 6.67 M199.33 0 C203.78 0, 206 2.22, 206 6.67 M206 6.67 C206 11.04, 206 15.41, 206 20 M206 6.67 C206 9.62, 206 12.57, 206 20 M206 20 C206 24.44, 203.78 26.67, 199.33 26.67 M206 20 C206 24.44, 203.78 26.67, 199.33 26.67 M199.33 26.67 C153.97 26.67, 108.6 26.67, 6.67 26.67 M199.33 26.67 C151.7 26.67, 104.07 26.67, 6.67 26.67 M6.67 26.67 C2.22 26.67, 0 24.44, 0 20 M6.67 26.67 C2.22 26.67, 0 24.44, 0 20 M0 20 C0 15.05, 0 10.1, 0 6.67 M0 20 C0 15.02, 0 10.04, 0 6.67 M0 6.67 C0 2.22, 2.22 0, 6.67 0 M0 6.67 C0 2.22, 2.22 0, 6.67 0" stroke="#e03131" stroke-width="2" fill="none"></path></g><g stroke-linecap="round"><g transform="translate(614.161376953125 375.3332824707031) rotate(0 42.6666259765625 0)"><path d="M0 0 C14.22 0, 71.11 0, 85.33 0 M0 0 C14.22 0, 71.11 0, 85.33 0" stroke="#e03131" stroke-width="2" fill="none"></path></g><g transform="translate(614.161376953125 375.3332824707031) rotate(0 42.6666259765625 0)"><path d="M61.84 8.55 C67.17 6.61, 72.5 4.67, 85.33 0 M61.84 8.55 C69.38 5.81, 76.92 3.06, 85.33 0" stroke="#e03131" stroke-width="2" fill="none"></path></g><g transform="translate(614.161376953125 375.3332824707031) rotate(0 42.6666259765625 0)"><path d="M61.84 -8.55 C67.17 -6.61, 72.5 -4.67, 85.33 0 M61.84 -8.55 C69.38 -5.81, 76.92 -3.06, 85.33 0" stroke="#e03131" stroke-width="2" fill="none"></path></g></g><mask></mask><g transform="translate(706.8280029296875 363.3333435058594) rotate(0 64.453125 12)"><text x="0" y="0" font-family="Cascadia, Segoe UI Emoji" font-size="20px" fill="#e03131" text-anchor="start" style="white-space: pre;" direction="ltr" dominant-baseline="text-before-edge">React state</text></g><g stroke-linecap="round"><g transform="translate(219.66656494140625 386.0000915527344) rotate(0 117.33331298828125 29.442738739996003)"><path d="M0 0 C4.61 8.44, -11.44 40.85, 27.67 50.67 C66.78 60.48, 200.17 57.52, 234.67 58.89 M0 0 C4.61 8.44, -11.44 40.85, 27.67 50.67 C66.78 60.48, 200.17 57.52, 234.67 58.89" stroke="#e03131" stroke-width="2" fill="none"></path></g><g transform="translate(219.66656494140625 386.0000915527344) rotate(0 117.33331298828125 29.442738739996003)"><path d="M211.09 67.2 C217.19 65.05, 223.28 62.9, 234.67 58.89 M211.09 67.2 C219.79 64.13, 228.49 61.06, 234.67 58.89" stroke="#e03131" stroke-width="2" fill="none"></path></g><g transform="translate(219.66656494140625 386.0000915527344) rotate(0 117.33331298828125 29.442738739996003)"><path d="M211.26 50.1 C217.31 52.37, 223.36 54.64, 234.67 58.89 M211.26 50.1 C219.9 53.34, 228.53 56.58, 234.67 58.89" stroke="#e03131" stroke-width="2" fill="none"></path></g></g><mask></mask><g transform="translate(462.21337890625 432.0000305175781) rotate(0 29.296875 12)"><text x="0" y="0" font-family="Cascadia, Segoe UI Emoji" font-size="20px" fill="#e03131" text-anchor="start" style="white-space: pre;" direction="ltr" dominant-baseline="text-before-edge">Value</text></g><g stroke-linecap="round"><g transform="translate(310.7629089355469 390.3333740234375) rotate(0 120.1097936626715 13.413343962252668)"><path d="M0 0 C5.39 4.11, -7.7 20.2, 32.33 24.67 C72.37 29.14, 205.57 26.47, 240.22 26.83 M0 0 C5.39 4.11, -7.7 20.2, 32.33 24.67 C72.37 29.14, 205.57 26.47, 240.22 26.83" stroke="#e03131" stroke-width="2" fill="none"></path></g><g transform="translate(310.7629089355469 390.3333740234375) rotate(0 120.1097936626715 13.413343962252668)"><path d="M216.76 35.48 C225.73 32.17, 234.69 28.86, 240.22 26.83 M216.76 35.48 C224.18 32.74, 231.6 30.01, 240.22 26.83" stroke="#e03131" stroke-width="2" fill="none"></path></g><g transform="translate(310.7629089355469 390.3333740234375) rotate(0 120.1097936626715 13.413343962252668)"><path d="M216.69 18.37 C225.68 21.61, 234.68 24.84, 240.22 26.83 M216.69 18.37 C224.13 21.05, 231.57 23.72, 240.22 26.83" stroke="#e03131" stroke-width="2" fill="none"></path></g></g><mask></mask><g transform="translate(560.0363159179688 403.3333435058594) rotate(0 35.15625 12)"><text x="0" y="0" font-family="Cascadia, Segoe UI Emoji" font-size="20px" fill="#e03131" text-anchor="start" style="white-space: pre;" direction="ltr" dominant-baseline="text-before-edge">Update</text></g></svg>